<svg xmlns="http://www.w3.org/2000/svg" viewBox="0 0 64 64" shape-rendering="crispEdges">
  <rect x="18" y="10" width="28" height="4" fill="#6f9466"/>
  <rect x="14" y="14" width="36" height="4" fill="#6f9466"/>
  <rect x="10" y="18" width="44" height="28" fill="#6f9466"/>
  <rect x="14" y="18" width="36" height="32" fill="#6f9466"/>
  <rect x="18" y="50" width="28" height="4" fill="#6f9466"/>
  <rect x="18" y="18" width="28" height="28" fill="#fff8cc"/>
  <rect x="22" y="22" width="20" height="20" fill="#d6ef9a"/>
  <rect x="26" y="26" width="12" height="12" fill="#fff8cc"/>
  <rect x="30" y="16" width="4" height="6" fill="#6f9466"/>
  <rect x="30" y="42" width="4" height="6" fill="#6f9466"/>
  <rect x="16" y="30" width="6" height="4" fill="#6f9466"/>
  <rect x="42" y="30" width="6" height="4" fill="#6f9466"/>
  <rect x="32" y="22" width="4" height="8" fill="#8fc66b"/>
  <rect x="28" y="30" width="8" height="4" fill="#8fc66b"/>
  <rect x="26" y="34" width="6" height="4" fill="#aee0d7"/>
  <rect x="30" y="38" width="4" height="4" fill="#aee0d7"/>
  <rect x="38" y="20" width="4" height="4" fill="#fff8cc"/>
</svg>
